<?xml version="1.0" encoding="UTF-8"?>
<svg width="2200px" height="1700px" viewBox="0 0 2200 1700" version="1.1" xmlns="http://www.w3.org/2000/svg" xmlns:xlink="http://www.w3.org/1999/xlink">
    <!-- Generator: Sketch 51.3 (57544) - http://www.bohemiancoding.com/sketch -->
    <title>CM-MBL-E-01</title>
    <desc>Created with Sketch.</desc>
    <defs></defs>
    <g id="CM-MBL-E-01" stroke="none" stroke-width="1" fill="none" fill-rule="evenodd">
        <rect id="str(3),farm" stroke="#D0021B" fill-rule="nonzero" x="205" y="117" width="159" height="69"></rect>
        <rect id="int(2),week" stroke="#D0021B" fill-rule="nonzero" x="530" y="117" width="109" height="69"></rect>
        <rect id="int(5),date" stroke="#D0021B" fill-rule="nonzero" x="790" y="118" width="244" height="65"></rect>
        <g id="verticle" transform="translate(101.000000, 246.000000)" fill-rule="nonzero" stroke="#D0021B" stroke-linecap="square">
            <path d="M1,0 L1,1279" id="int(6),female"></path>
            <path d="M290,0 L290,1279" id="int(3),breeder{1}"></path>
            <path d="M442,0 L442,1279" id="int(6),semen{1}"></path>
            <path d="M734,0 L734,1279" id="int(3),gilt"></path>
            <path d="M888,0 L888,1279" id="float(1,2),bcs"></path>
            <path d="M1061,0 L1061,1279" id="int(3),breeder{2}"></path>
            <path d="M1215,0 L1215,1279" id="int(6),semen{2}"></path>
            <path d="M1506,0 L1506,1279" id="int(3),breeder{3}"></path>
            <path d="M1660,0 L1660,1279" id="int(6),semen{3}"></path>
            <path d="M1959,0 L1959,1279" id="nil"></path>
        </g>
        <g id="horizon" transform="translate(102.000000, 245.000000)" fill-rule="nonzero" stroke="#D0021B" stroke-linecap="square">
            <path d="M0,1 L1958,1" id="nil"></path>
            <path d="M0,69 L1958,69" id="nil"></path>
            <path d="M0,136 L1958,136" id="nil"></path>
            <path d="M0,203 L1958,203" id="nil"></path>
            <path d="M0,271 L1958,271" id="nil"></path>
            <path d="M0,338 L1958,338" id="nil"></path>
            <path d="M0,405 L1958,405" id="nil"></path>
            <path d="M0,473 L1958,473" id="nil"></path>
            <path d="M0,540 L1958,540" id="nil"></path>
            <path d="M0,607 L1958,607" id="nil"></path>
            <path d="M0,675 L1958,675" id="nil"></path>
            <path d="M0,742 L1958,742" id="nil"></path>
            <path d="M0,809 L1958,809" id="nil"></path>
            <path d="M0,877 L1958,877" id="nil"></path>
            <path d="M0,944 L1958,944" id="nil"></path>
            <path d="M0,1011 L1958,1011" id="nil"></path>
            <path d="M0,1079 L1958,1079" id="nil"></path>
            <path d="M0,1146 L1958,1146" id="nil"></path>
            <path d="M0,1213 L1958,1213" id="nil"></path>
            <path d="M0,1280 L1958,1280" id="nil"></path>
        </g>
    </g>
</svg>